<?xml version="1.0" encoding="UTF-8"?>
<svg width="1200pt" height="1200pt" version="1.1" viewBox="0 0 1200 1200" xmlns="http://www.w3.org/2000/svg">
 <g>
  <path d="m1200 600c0 214.36-114.36 412.44-300 519.62-185.64 107.18-414.36 107.18-600 0-185.64-107.18-300-305.26-300-519.62s114.36-412.44 300-519.62c185.64-107.18 414.36-107.18 600 0 185.64 107.18 300 305.26 300 519.62"/>
  <path d="m911.09 449.51c-29.227-42.645-81.637-82.52-148.65-103.98-4.2031-1.3867-7.3203-4.9531-8.1289-9.3047-2.375-11.754-9.4297-22.039-19.543-28.488-10.113-6.4453-22.414-8.5-34.074-5.6875s-21.672 10.25-27.734 20.598c-2.1992 3.8711-6.3438 6.2188-10.793 6.1094-161.77-4.9961-275.82 99.059-290.97 277.3v0.003906c-0.28906 3.6562-1.7188 7.1328-4.0859 9.9414-20.145 23.68-117.07 137.8-120.55 143.2-12.164 18.793-13.285 48.465 9.1758 64.637 10.156 7.7266 22.535 11.973 35.293 12.109 34.676 0 67.035-31.84 91.316-56.648h0.003906c3.0078-3.0938 7.4648-4.293 11.617-3.125 85.797 24.844 147.9 92.691 188.16 113.88 16.516 8.5234 35.41 11.266 53.668 7.793 72.441-11.926 149.25-100.02 177.71-135.68 7.375-9.1875 18.695-14.297 30.465-13.754 14.879 0.64844 31.055 0.70703 46.109 0.58984 16.441-0.21484 32.258-6.3203 44.578-17.207 12.316-10.891 20.32-25.84 22.551-42.129 12.691-89.859 6.6719-163.19-46.109-240.18zm-620.07 368.73c-9.0391-0.14844-17.789-3.2266-24.938-8.7656-6.0078-4.2969-9.9219-10.93-10.773-18.266-0.29688-2.4414-0.29688-4.9062 0-7.3477 27.844-17.273 65.062-22.664 111.5-14.051-21.633 22-49.551 48.43-75.785 48.43zm500.76-81.227c-0.91797 2.25-2.6992 4.043-4.9414 4.9727-2.2461 0.93359-4.7695 0.92969-7.0117-0.007812-37.918-16.691-74.801-35.633-110.45-56.73-49.688-28.203-96.613-54.844-156.16-68.816-38.402-8.9219-78.254-9.6406-116.96-2.1133-2.5586 0.50391-5.2109-0.14453-7.25-1.7773-2.0352-1.6289-3.25-4.0742-3.3164-6.6836 0.003906-4.4336 3.1875-8.2227 7.5508-9 41.043-7.9375 83.297-7.1445 124.01 2.332 61.992 14.555 110.02 41.801 160.84 70.652 29.023 16.477 88.188 45.367 109.22 55.57h0.003906c4.3086 2.0898 6.2461 7.1719 4.4258 11.602z" fill="#fff"/>
 </g>
</svg>
