<?xml version="1.0" encoding="UTF-8"?>
<svg width="1200pt" height="1200pt" version="1.1" viewBox="0 0 1200 1200" xmlns="http://www.w3.org/2000/svg">
 <g>
  <path d="m1200 600c0 214.36-114.36 412.44-300 519.62-185.64 107.18-414.36 107.18-600 0-185.64-107.18-300-305.26-300-519.62s114.36-412.44 300-519.62c185.64-107.18 414.36-107.18 600 0 185.64 107.18 300 305.26 300 519.62"/>
  <path d="m825.96 408.8c-8.3125 4.5352-11.336 15.113-6.8008 23.426 25.695 47.609 37.031 114.87 31.738 188.17-0.75391 9.8242 6.8008 18.137 15.871 18.895h1.5117c9.0703 0 16.625-6.8008 17.383-16.625 5.2891-81.617-6.8008-152.65-36.273-207.07-4.5391-8.3125-15.117-11.332-23.43-6.8008z" fill="#fff"/>
  <path d="m921.94 406.54c-4.5352-8.3125-15.113-11.336-23.426-6.8008-8.3125 4.5352-11.336 15.113-6.8008 23.426 26.449 49.879 37.785 120.16 30.984 197.24-0.75391 9.8242 6.0469 18.137 15.871 18.895h1.5117c9.0703 0 16.625-6.8008 17.383-15.871 6.7969-83.887-6.0508-160.97-35.523-216.89z" fill="#fff"/>
  <path d="m349.86 519.14c0.75391-9.8242-6.8008-18.137-15.871-18.895-9.8242-0.75391-18.137 6.8008-18.895 15.871-5.2891 81.617 6.8008 152.65 36.273 207.07 3.0234 6.0469 9.0703 9.0703 15.113 9.0703 3.0234 0 5.2891-0.75391 8.3125-2.2656 8.3125-4.5352 11.336-15.113 6.8008-23.426-25.688-46.859-37.023-113.36-31.734-187.42z" fill="#fff"/>
  <path d="m278.07 519.89c0.75391-9.8242-6.0469-18.137-15.871-18.895-9.8203-0.75391-18.137 6.0469-18.891 15.875-7.5586 83.883 5.2891 160.97 35.52 216.89 3.0234 6.0469 9.0703 9.0703 15.113 9.0703 3.0234 0 5.2891-0.75391 8.3125-2.2656 8.3125-4.5352 11.336-15.113 6.8008-23.426-27.203-49.883-37.785-120.16-30.984-197.25z" fill="#fff"/>
  <path d="m780.62 734.52c34.008-28.719 27.207-82.371 15.871-136.03-13.605-63.48-52.902-237.3-52.902-237.3-3.7773-15.113-18.895-24.938-34.008-21.16-15.113 3.0234-24.938 18.895-21.16 34.008l28.719 125.45c1.5117 4.5352-1.5117 9.0703-6.0469 10.578h-0.75391c-4.5352 1.5117-9.8242-1.5117-11.336-6.0469l-49.879-158.7c-4.5352-15.113-21.16-24.184-35.52-18.895-15.113 4.5352-23.426 21.16-18.895 35.52l49.879 158.7c1.5117 4.5352-1.5117 9.8242-6.0469 11.336-4.5352 1.5117-9.0703-0.75391-10.578-4.5352l-76.324-176.83c-6.0469-14.359-22.672-21.16-37.031-15.113-14.359 6.8008-21.16 23.426-15.113 37.785l74.059 170.04c2.2656 4.5352-0.75391 9.8242-6.0469 12.09l-3.0234 0.75391c-3.7773 1.5117-8.3125 0-10.578-3.7773l-75.57-134.52c-7.5586-13.602-24.938-18.137-39.297-10.578-13.602 7.5586-18.137 25.695-10.578 39.297 0 0 63.48 108.07 75.57 132.25 11.336 21.914 17.383 35.52 25.695 55.168 4.5352 10.578-5.2891 22.672-16.625 19.648-3.0234-0.75391-5.2891-1.5117-6.0469-2.2656-1.5117-0.75391-3.7773-2.2656-6.0469-3.7773-11.336-6.0469-28.719-16.625-40.055-21.914-18.137-8.3125-34.008-8.3125-44.586 5.2891-11.336 14.359-8.3125 35.52 6.8008 45.344 0 0 92.195 74.059 142.07 100.51 17.383 9.0703 39.297 17.383 58.945 16.625l23.426 64.992c4.5352 12.09 17.383 18.137 29.473 14.359l112.6-40.809c12.09-4.5352 18.895-17.383 14.359-30.23z" fill="#fff"/>
 </g>
</svg>
