<?xml version="1.0" encoding="UTF-8"?>
<svg width="1200pt" height="1200pt" version="1.1" viewBox="0 0 1200 1200" xmlns="http://www.w3.org/2000/svg">
 <defs>
  <clipPath id="c">
   <path d="m222.14 454h553.86v523.86h-553.86z"/>
  </clipPath>
  <clipPath id="b">
   <path d="m424 454h553.86v523.86h-553.86z"/>
  </clipPath>
  <clipPath id="a">
   <path d="m222.14 222.14h755.71v569.86h-755.71z"/>
  </clipPath>
 </defs>
 <path d="m1200 600c0 214.36-114.36 412.44-300 519.62-185.64 107.18-414.36 107.18-600 0-185.64-107.18-300-305.26-300-519.62s114.36-412.44 300-519.62c185.64-107.18 414.36-107.18 600 0 185.64 107.18 300 305.26 300 519.62"/>
 <path d="m562.21 743.59c0 41.738-33.832 75.574-75.57 75.574s-75.57-33.836-75.57-75.574c0-41.734 33.832-75.57 75.57-75.57s75.57 33.836 75.57 75.57" fill="#fff"/>
 <g clip-path="url(#c)">
  <path transform="matrix(7.5571 0 0 7.5571 222.14 222.14)" d="m45 69c0 5.523-4.4768 10-9.9999 10s-9.9999-4.4773-9.9999-10c0-5.5225 4.4768-9.9999 9.9999-9.9999s9.9999 4.4773 9.9999 9.9999" fill="none" stroke="#fff" stroke-miterlimit="10" stroke-width="2"/>
 </g>
 <path d="m788.93 743.59c0 41.738-33.832 75.574-75.57 75.574s-75.57-33.836-75.57-75.574c0-41.734 33.832-75.57 75.57-75.57s75.57 33.836 75.57 75.57" fill="#fff"/>
 <g clip-path="url(#b)">
  <path transform="matrix(7.5571 0 0 7.5571 222.14 222.14)" d="m75 69c0 5.523-4.4768 10-9.9999 10s-9.9999-4.4773-9.9999-10c0-5.5225 4.4768-9.9999 9.9999-9.9999s9.9999 4.4773 9.9999 9.9999" fill="none" stroke="#fff" stroke-miterlimit="10" stroke-width="2"/>
 </g>
 <path transform="matrix(7.5571 0 0 7.5571 222.14 222.14)" d="m45 69h10" fill="none" stroke="#fff" stroke-miterlimit="10" stroke-width="2"/>
 <path transform="matrix(7.5571 0 0 7.5571 222.14 222.14)" d="m15 47h70v8h-70z" fill="#fff" stroke="#fff" stroke-miterlimit="10" stroke-width="2"/>
 <path d="m600 380.84c-108.52 0-196.48 87.973-196.48 196.49h392.97c0-108.52-87.973-196.49-196.49-196.49z" fill="#fff"/>
 <g clip-path="url(#a)">
  <path transform="matrix(7.5571 0 0 7.5571 222.14 222.14)" d="m50 21c-14.36 0-26 11.641-26 26h52c0-14.359-11.641-26-26-26z" fill="none" stroke="#fff" stroke-miterlimit="10" stroke-width="2"/>
 </g>
</svg>
